<svg xmlns="http://www.w3.org/2000/svg" aria-hidden="true"><defs>

<symbol id="border" width='100%' height='100%' >
<rect width='100%' height='100%' fill='none' rx='30' ry='30' 
stroke="var(--btn-color, #f4c550)"
stroke-width='1.5' stroke-dasharray='15' stroke-dashoffset='0' stroke-linecap='square'/>
</symbol>

<symbol id="icon-login" viewBox="0 0 32 32">
<path fill="none" stroke-linecap="round" stroke-linejoin="round" stroke-width="3.2" d="M20 4h1.6c2.24 0 3.36 0 4.216.436a3.996 3.996 0 0 1 1.748 1.748C28 7.04 28 8.16 28 10.4v11.2c0 2.24 0 3.36-.436 4.216a4.001 4.001 0 0 1-1.748 1.748C24.96 28 23.84 28 21.6 28H20M13.333 9.333 20 16m0 0-6.667 6.667M20 16H4" 
stroke="var(--btn-color, #f4c550)"/>
</symbol>

<symbol id="icon-ukraine" viewBox="0 0 32 32">
<path d="M16 32c8.837 0 16-7.163 16-16S24.837 0 16 0 0 7.163 0 16s7.163 16 16 16z" 
style="fill:var(--color2, #ffda44)"/>
<path d="M0 16C0 7.164 7.163 0 16 0s16 7.163 16 16z" 
style="fill:var(--color3, #338af3)"/>
</symbol>

</defs></svg>